<?xml version="1.0" standalone="no"?>
<!DOCTYPE svg PUBLIC "-//W3C//DTD SVG 20010904//EN"
 "http://www.w3.org/TR/2001/REC-SVG-20010904/DTD/svg10.dtd">
<svg version="1.0" xmlns="http://www.w3.org/2000/svg"
 width="1990.000000pt" height="2005.000000pt" viewBox="0 0 1990.000000 2005.000000"
 preserveAspectRatio="xMidYMid meet">

<g transform="translate(0.000000,2005.000000) scale(0.100000,-0.100000)"
fill="#000000" stroke="none">
<path d="M9345 19199 c-255 -16 -535 -44 -787 -80 l-78 -11 0 -4690 c0 -2579
3 -4687 8 -4685 4 2 238 142 519 311 l513 307 2 1127 3 1126 933 559 932 560
0 2682 0 2681 -182 27 c-481 70 -726 88 -1268 92 -250 2 -518 -1 -595 -6z"/>
<path d="M7480 18894 c-917 -253 -1771 -640 -2562 -1160 l-188 -123 0 -3921
c0 -2156 3 -3920 6 -3920 4 0 331 185 727 412 396 226 725 411 732 411 6 0
331 -192 722 -426 391 -235 714 -427 717 -427 3 0 6 2068 6 4595 0 4370 -1
4595 -17 4594 -10 0 -74 -16 -143 -35z"/>
<path d="M3700 16777 c-967 -904 -1726 -2013 -2221 -3246 l-78 -195 1241 -689
c682 -379 1242 -687 1244 -684 2 2 3 1125 2 2495 l-3 2491 -185 -172z"/>
<path d="M15725 15284 c-616 -333 -1130 -611 -1143 -618 -22 -11 124 -97 2018
-1179 1235 -705 2039 -1159 2036 -1149 -3 9 -19 71 -36 137 -265 1015 -726
2011 -1328 2870 -175 250 -403 546 -420 545 -4 -1 -511 -273 -1127 -606z"/>
<path d="M12230 14127 l0 -884 -725 -434 c-398 -239 -724 -437 -725 -440 0 -7
7778 -4496 7799 -4501 34 -8 181 697 240 1152 83 641 95 1330 36 2010 -9 96
-19 184 -24 195 -6 14 -1139 666 -3297 1899 -1809 1034 -3292 1881 -3296 1883
-5 2 -8 -394 -8 -880z"/>
<path d="M10360 10991 l0 -640 935 -561 935 -561 0 -1122 0 -1123 2270 -1297
c1248 -713 2274 -1297 2279 -1297 13 0 184 213 343 427 396 532 747 1136 1015
1748 66 149 149 354 178 435 l12 35 -3931 2268 c-2162 1247 -3955 2281 -3983
2298 l-53 31 0 -641z"/>
<path d="M3817 8271 c-1297 -742 -2360 -1351 -2363 -1354 -13 -13 183 -461
334 -762 300 -601 676 -1182 1096 -1693 l109 -132 57 32 c219 124 7929 4624
7930 4628 0 3 -234 145 -520 317 l-520 312 -928 -557 c-510 -306 -936 -557
-947 -557 -11 0 -438 251 -948 558 -511 306 -932 557 -935 556 -4 0 -1068
-607 -2365 -1348z"/>
<path d="M7595 6036 c-2085 -1216 -3840 -2240 -3900 -2275 l-110 -64 70 -65
c750 -694 1492 -1203 2345 -1607 285 -135 392 -177 416 -167 25 12 6456 3762
6466 3771 5 4 -330 200 -742 435 l-750 429 -2 877 -3 877 -3790 -2211z"/>
<path d="M9418 2631 l-1968 -1148 158 -41 c568 -147 1153 -237 1774 -273 268
-15 956 -7 1208 15 216 19 457 47 658 78 l142 22 0 1248 c0 686 -1 1248 -2
1248 -2 -1 -888 -518 -1970 -1149z"/>
</g>
</svg>
